Coordinates
version=1
nRows=19
nColumns=34
inDegrees=yes

Units are S.I. units (second, meters, Newtons, ...)
If the header above contains a line with 'inDegrees', this indicates whether rotational values are in degrees (yes) or radians (no).

endheader
time	pelvis_tilt	pelvis_list	pelvis_rotation	pelvis_tx	pelvis_ty	pelvis_tz	hip_flexion_l	hip_adduction_l	hip_rotation_l	hip_flexion_r	hip_adduction_r	hip_rotation_r	knee_angle_l_beta	knee_angle_r_beta	knee_angle_l	knee_angle_r	ankle_angle_l	ankle_angle_r	subtalar_angle_l	subtalar_angle_r	mtp_angle_l	mtp_angle_r	lumbar_ext	lumbar_bend	lumbar_rota	shoulder_flexion_r	shoulder_adduction_r	shoulder_rotation_r	elbow_flexion_r	shoulder_flexion_l	shoulder_adduction_l	shoulder_rotation_l	elbow_flexion_l
      0.61000000	      9.68615875	      3.90591540	      3.70125173	      0.37337700	      0.83080377	     -0.25283938	    -26.50017084	      8.45833147	     -1.87785540	     14.35586323	     -1.79784304	     -8.80828923	      0.14232775	     -0.02648177	     -8.15477948	      1.51729359	     18.25748390	      2.16912381	     15.37025241	      6.29644246	    -10.79146523	    -10.66020689	    -24.37779964	     -2.34773660	     -8.38466855	     -1.14746134	      0.29889377	     -1.54642148	     34.30742822	      0.15058128	     -1.92452709	    -11.49458086	     48.92090879
      0.62000000	      9.72543357	      3.80569455	      3.78856333	      0.38385706	      0.83013231	     -0.25245221	    -26.98767277	      8.12463181	     -1.72449997	     14.25872329	     -1.49519323	     -8.32680165	      0.15363190	     -0.01913424	     -8.80245964	      1.09631144	     17.94194533	      2.14311471	     15.67653929	      6.44951128	    -10.68212284	    -10.60764944	    -24.46274767	     -2.21218771	     -8.42768643	     -1.13977634	      0.34733673	     -1.54276276	     34.31428716	      0.13542765	     -1.72287390	    -11.55928270	     48.73143830
      0.63000000	      9.87809140	      3.67567960	      3.83078431	      0.39456286	      0.82974739	     -0.25189338	    -27.49320634	      7.70093262	     -2.20084569	     14.06864027	     -1.14510149	     -8.02856820	      0.16785219	     -0.00634234	     -9.61722197	      0.36338907	     17.58245343	      2.15513648	     16.86927815	      6.78750120	     -8.96097333	     -9.95359337	    -24.64882419	     -2.07552243	     -8.36344646	     -1.15203135	      0.37553099	     -1.51470448	     34.34545097	      0.14605581	     -1.47069383	    -11.77694894	     48.42947156
      0.64000000	      9.96458000	      3.56088327	      3.94356480	      0.40542672	      0.82945487	     -0.25150136	    -27.94272735	      7.33088038	     -1.97848471	     13.88615463	     -0.84879435	     -7.52159531	      0.18216617	      0.00827948	    -10.43735280	     -0.47437918	     17.00435140	      1.92615218	     17.05037654	      6.94738899	     -8.90822972	     -9.83452239	    -24.76190271	     -1.91005187	     -8.42260718	     -1.12503036	      0.40199180	     -1.51330125	     34.32231419	      0.05895307	     -1.26427076	    -11.87121010	     48.18754793
      0.65000000	     10.04342549	      3.50089916	      4.04138497	      0.41645515	      0.82930726	     -0.25102898	    -28.27517983	      7.00946554	     -1.90960923	     13.73940828	     -0.61175195	     -7.11891949	      0.20024206	      0.02690167	    -11.47302507	     -1.54135229	     16.30586371	      1.61542929	     17.28537186	      7.06324735	     -8.68982244	     -9.55943969	    -24.86489242	     -1.82155220	     -8.44412696	     -1.11821270	      0.41657874	     -1.49126323	     34.27778013	     -0.02597847	     -1.04251259	    -12.07681492	     47.88634077
      0.66000000	     10.10370828	      3.35999092	      4.16957742	      0.42782004	      0.82927996	     -0.25065146	    -28.59574919	      6.59849334	     -1.75476512	     13.51951860	     -0.31241825	     -6.60730830	      0.21730535	      0.04474572	    -12.45067923	     -2.56374111	     15.39348957	      1.09791397	     17.53721673	      7.20093493	     -8.52168623	     -9.34404643	    -24.90863914	     -1.61229548	     -8.50539202	     -1.09798536	      0.41780678	     -1.50057384	     34.23203527	     -0.20033263	     -0.82727171	    -12.17833055	     47.61363809
      0.67000000	      9.88066065	      3.29411506	      4.19998510	      0.43925025	      0.82894575	     -0.24993631	    -28.43527897	      6.27900006	     -1.84939428	     13.64327057	     -0.07547951	     -5.85349014	      0.23901704	      0.06371581	    -13.69466757	     -3.65064694	     14.23018148	      0.09733604	     18.10798167	      6.73515400	     -6.66434644	     -7.92419325	    -24.64487439	     -1.57840875	     -8.52414810	     -1.04373497	      0.43406324	     -1.42401957	     34.05360918	     -0.41962968	     -0.61539810	    -12.45944213	     47.23802126
      0.68000000	     10.07009048	      3.03890753	      4.30504378	      0.45126169	      0.82953052	     -0.24940922	    -28.79388615	      5.68970204	     -2.08443061	     13.13418667	      0.36053758	     -5.44528308	      0.25654465	      0.07815053	    -14.69892573	     -4.47769578	     12.46014258	     -1.11703885	     18.57216819	      6.35600334	     -3.99758998	     -6.01545609	    -24.76318929	     -1.26438400	     -8.52288476	     -1.03082356	      0.38212719	     -1.34731027	     33.93601355	     -0.71758002	     -0.41689169	    -12.53779666	     46.97283394
      0.69000000	     10.13416097	      2.81711029	      4.44802414	      0.46328426	      0.83014474	     -0.24900944	    -28.85291663	      5.16125922	     -2.14270701	     12.75840853	      0.71455734	     -5.14593344	      0.28036647	      0.09416181	    -16.06381518	     -5.39507440	     10.85084664	     -2.02556428	     18.86311303	      6.36838896	     -3.80242550	     -5.88762004	    -24.75988777	     -0.98265928	     -8.52102846	     -1.03036346	      0.33352763	     -1.38173872	     33.86452375	     -0.99742690	     -0.20990218	    -12.62192721	     46.63539931
      0.70000000	     10.07674043	      2.45476854	      4.50898135	      0.47554381	      0.83071155	     -0.24823620	    -28.64586984	      4.44792166	     -2.60613816	     12.46139170	      1.28720656	     -4.38525512	      0.30604904	      0.10702964	    -17.53531804	     -6.13234664	      8.85868364	     -3.52760179	     19.74125547	      5.07837480	     -1.09438369	     -5.11186538	    -24.57332960	     -0.60575779	     -8.39408538	     -1.02086615	      0.26186905	     -1.31423831	     33.66411103	     -1.30760902	     -0.03644264	    -12.62639427	     46.15371882
      0.71000000	     10.13297684	      2.05148720	      4.59329087	      0.48799929	      0.83170603	     -0.24754657	    -28.46520912	      3.64820571	     -3.17005091	     11.98499039	      1.86000767	     -4.03203604	      0.33314787	      0.11872544	    -19.08796670	     -6.80246691	      6.37078180	     -4.74566414	     20.55675773	      4.52231133	      1.96545482	     -4.61535290	    -24.49944556	     -0.17277592	     -8.26781776	     -1.02425473	      0.16476073	     -1.24043916	     33.52252243	     -1.66178978	      0.14597951	    -12.66468839	     45.75338141
      0.72000000	     10.24343962	      1.67901778	      4.71771782	      0.50041346	      0.83300510	     -0.24703513	    -28.17977848	      2.90207609	     -3.44815210	     11.44709762	      2.35332332	     -3.81020461	      0.36612596	      0.13152972	    -20.97747239	     -7.53609767	      3.94143721	     -5.43034018	     20.89669306	      4.52056084	      2.14277269	     -4.58318629	    -24.50575651	      0.25072874	     -8.17725880	     -1.01960738	      0.05844324	     -1.22273611	     33.44478567	     -2.02992542	      0.33976314	    -12.71366007	     45.42340082
      0.73000000	     10.34368039	      1.24224295	      4.82411465	      0.51287294	      0.83445238	     -0.24645076	    -27.70162471	      2.05591725	     -3.87737187	     10.89024944	      2.91376416	     -3.61857257	      0.40359561	      0.14290282	    -23.12432527	     -8.18772868	      1.24174678	     -6.07196908	     21.35828573	      4.35425203	      2.46424895	     -4.55274693	    -24.50260104	      0.74762025	     -8.02073832	     -1.00600282	     -0.07364116	     -1.13241391	     33.31931899	     -2.40779150	      0.51348347	    -12.74372814	     45.05168139
      0.74000000	     10.17044517	      0.53010697	      4.78431620	      0.52577626	      0.83546331	     -0.24521964	    -26.82398566	      0.74595058	     -5.40373024	     10.55299001	      3.87565198	     -3.30143101	      0.43935750	      0.14987918	    -25.17333045	     -8.58744466	     -2.43803109	     -7.38693084	     22.90297285	      2.80537198	      9.45677049	     -4.78693007	    -24.05730070	      1.38726728	     -7.84014194	     -0.85487416	     -0.27484756	     -0.30137618	     32.72062296	     -2.97945066	      0.67448631	    -12.91031501	     44.57343599
      0.75000000	     10.39544927	      0.06229070	      4.84779967	      0.53799535	      0.83727035	     -0.24449675	    -26.14299892	     -0.21737687	     -5.93111919	      9.82396241	      4.47898672	     -3.14757357	      0.48479245	      0.16015697	    -27.77656129	     -9.17631816	     -5.36527684	     -7.44405422	     23.17701695	      2.79812400	      9.51659821	     -4.72213275	    -24.23021856	      1.89349036	     -7.56434814	     -0.82336167	     -0.43317604	     -0.11895085	     32.59338219	     -3.31077275	      0.82827464	    -12.91167101	     44.26622040
      0.76000000	     10.12959297	     -0.62075002	      4.90207449	      0.55080155	      0.83832952	     -0.24358353	    -24.82546442	     -1.53320307	     -7.08934829	      9.58209397	      5.28796833	     -3.50790030	      0.53257244	      0.16849848	    -30.51415310	     -9.65425163	     -8.98303658	     -7.86265469	     23.61176285	      2.59468893	      9.98295400	     -4.78004248	    -23.69072295	      2.55144322	     -7.31645375	     -0.84838401	     -0.66478822	      0.50620570	     32.26624412	     -3.81885395	      0.94461979	    -12.83012939	     43.76037421
      0.77000000	      9.82043619	     -1.30518156	      4.87037331	      0.56301324	      0.83920763	     -0.24248951	    -23.23691754	     -2.84438095	     -8.03643194	      9.44714064	      6.12731829	     -3.46562398	      0.58542850	      0.17851512	    -33.54258230	    -10.22816302	    -12.10529447	     -7.84310924	     23.84924792	      2.23499693	     11.57664453	     -5.01586720	    -23.16655010	      3.18063852	     -7.21455005	     -0.50756019	     -0.95192195	      2.05716875	     31.31298655	     -4.35965356	      1.05839679	    -12.87369194	     43.22410172
      0.78000000	      9.84849487	     -1.90306570	      4.85355997	      0.57520272	      0.84068759	     -0.24148144	    -22.00224723	     -4.13307370	     -8.97851324	      8.83519919	      6.87622218	     -3.63773176	      0.63661468	      0.18604458	    -36.47533447	    -10.65956948	    -15.39226715	     -7.51042933	     23.63530040	      2.34282323	     11.54767975	     -5.01080311	    -23.06478782	      3.75058785	     -6.88816008	     -0.47416942	     -1.17943043	      2.67592388	     31.10324927	     -4.83212654	      1.19369028	    -12.95873483	     43.07097379
      0.79000000	      9.54091084	     -2.45895468	      4.81827326	      0.58691188	      0.84146621	     -0.24035702	    -20.18575013	     -5.33686046	     -9.64078770	      8.65394773	      7.56182884	     -3.82610993	      0.69364726	      0.19545580	    -39.74306070	    -11.19879218	    -17.78415123	     -6.87318241	     22.83585114	      2.63279402	     10.57495393	     -5.72165030	    -22.59599903	      4.23488812	     -7.54266492	      0.51380731	     -1.48588442	      5.82755058	     29.35770670	     -5.89341093	      1.38150671	    -14.13231565	     43.32495685
